<svg width="464" height="198" viewBox="0 0 464 198" fill="none" xmlns="http://www.w3.org/2000/svg">
<path d="M339.573 155.113C331.824 155.113 324.819 153.786 318.556 151.133C312.4 148.479 307.517 144.658 303.909 139.669C300.3 134.68 298.442 128.789 298.336 121.996H322.218C322.537 126.56 324.129 130.169 326.995 132.823C329.967 135.477 334 136.803 339.095 136.803C344.296 136.803 348.383 135.583 351.355 133.141C354.327 130.594 355.813 127.303 355.813 123.27C355.813 119.979 354.805 117.273 352.788 115.15C350.771 113.027 348.224 111.382 345.146 110.214C342.174 108.94 338.034 107.561 332.727 106.075C325.509 103.952 319.618 101.882 315.054 99.8651C310.596 97.7422 306.721 94.611 303.431 90.4713C300.247 86.2256 298.654 80.5999 298.654 73.5944C298.654 67.0134 300.3 61.2816 303.59 56.399C306.881 51.5164 311.498 47.8013 317.442 45.2538C323.386 42.6002 330.179 41.2734 337.822 41.2734C349.285 41.2734 358.573 44.0863 365.685 49.7119C372.902 55.2314 376.883 62.98 377.626 72.9575H353.106C352.894 69.1363 351.249 66.0051 348.171 63.5637C345.199 61.0163 341.218 59.7425 336.229 59.7425C331.878 59.7425 328.375 60.8571 325.721 63.0861C323.174 65.3151 321.9 68.5525 321.9 72.7983C321.9 75.7703 322.855 78.2647 324.766 80.2815C326.783 82.1921 329.224 83.7842 332.09 85.058C335.062 86.2256 339.201 87.6054 344.509 89.1976C351.727 91.3205 357.618 93.4434 362.182 95.5663C366.746 97.6891 370.673 100.873 373.964 105.119C377.254 109.365 378.899 114.938 378.899 121.837C378.899 127.781 377.36 133.301 374.282 138.396C371.204 143.49 366.693 147.577 360.749 150.655C354.805 153.627 347.746 155.113 339.573 155.113Z" fill="white"/>
<path d="M212.157 42.8672V111.649C212.157 119.185 214.121 124.97 218.049 129.003C221.976 132.931 227.495 134.894 234.607 134.894C241.825 134.894 247.397 132.931 251.325 129.003C255.252 124.97 257.216 119.185 257.216 111.649V42.8672H279.665V111.49C279.665 120.936 277.595 128.95 273.456 135.531C269.422 142.006 263.956 146.889 257.057 150.179C250.263 153.47 242.674 155.115 234.289 155.115C226.009 155.115 218.473 153.47 211.68 150.179C204.993 146.889 199.686 142.006 195.758 135.531C191.831 128.95 189.867 120.936 189.867 111.49V42.8672H212.157Z" fill="white"/>
<path d="M168.148 42.8672V154H145.858V81.716L116.084 154H99.2074L69.2747 81.716V154H46.9844V42.8672H72.2998L107.646 125.501L142.992 42.8672H168.148Z" fill="white"/>
<path d="M408 87C408 78.1634 415.163 71 424 71H448C456.837 71 464 78.1634 464 87V111C464 119.837 456.837 127 448 127H424C415.163 127 408 119.837 408 111V87Z" fill="#5CAF7C"/>
<path d="M396 0C420.301 0 440 19.6995 440 44V55H432V44C432 24.1178 415.882 8 396 8H44C24.1178 8 8 24.1177 8 44V154C8 173.882 24.1178 190 44 190H396C415.882 190 432 173.882 432 154V143H440V154C440 178.301 420.301 198 396 198H44C19.6995 198 0 178.301 0 154V44C0 19.6995 19.6995 0 44 0H396Z" fill="white"/>
</svg>
