<svg width="640" height="640" viewBox="0 0 640 640" fill="none" xmlns="http://www.w3.org/2000/svg">
<rect width="640" height="640" rx="100" fill="white"/>
<path d="M439.628 382.402C431.011 382.402 423.22 380.927 416.256 377.976C409.41 375.025 403.98 370.775 399.967 365.228C395.953 359.68 393.888 353.129 393.77 345.574H420.328C420.683 350.65 422.453 354.663 425.64 357.614C428.945 360.565 433.431 362.041 439.097 362.041C444.881 362.041 449.425 360.683 452.73 357.968C456.036 355.135 457.688 351.476 457.688 346.99C457.688 343.331 456.567 340.321 454.324 337.96C452.081 335.6 449.248 333.77 445.825 332.472C442.52 331.055 437.916 329.521 432.014 327.868C423.988 325.507 417.436 323.205 412.361 320.963C407.403 318.602 403.095 315.12 399.435 310.516C395.894 305.795 394.124 299.538 394.124 291.748C394.124 284.429 395.953 278.055 399.612 272.625C403.272 267.196 408.406 263.064 415.017 260.231C421.627 257.28 429.181 255.805 437.68 255.805C450.429 255.805 460.757 258.933 468.666 265.189C476.693 271.327 481.119 279.944 481.945 291.04H454.678C454.442 286.79 452.612 283.308 449.189 280.593C445.884 277.76 441.458 276.344 435.91 276.344C431.07 276.344 427.175 277.583 424.224 280.062C421.391 282.541 419.974 286.141 419.974 290.863C419.974 294.168 421.037 296.942 423.161 299.184C425.404 301.309 428.119 303.08 431.306 304.496C434.611 305.795 439.215 307.329 445.117 309.1C453.144 311.46 459.695 313.821 464.77 316.182C469.846 318.543 474.214 322.084 477.873 326.806C481.532 331.527 483.362 337.724 483.362 345.397C483.362 352.007 481.65 358.145 478.227 363.811C474.804 369.477 469.787 374.022 463.177 377.445C456.567 380.75 448.717 382.402 439.628 382.402Z" fill="#151917"/>
<path d="M297.933 257.578V334.068C297.933 342.449 300.117 348.882 304.484 353.367C308.852 357.735 314.99 359.919 322.898 359.919C330.925 359.919 337.122 357.735 341.49 353.367C345.857 348.882 348.041 342.449 348.041 334.068V257.578H373.006V333.891C373.006 344.396 370.704 353.308 366.101 360.627C361.615 367.827 355.536 373.257 347.864 376.916C340.309 380.576 331.869 382.405 322.544 382.405C313.337 382.405 304.956 380.576 297.402 376.916C289.965 373.257 284.063 367.827 279.696 360.627C275.328 353.308 273.145 344.396 273.145 333.891V257.578H297.933Z" fill="#151917"/>
<path d="M248.992 257.578V381.166H224.204V300.781L191.094 381.166H172.326L139.038 300.781V381.166H114.25V257.578H142.402L181.71 349.472L221.017 257.578H248.992Z" fill="#151917"/>
<path d="M515.723 306.656C515.723 296.83 523.689 288.863 533.516 288.863H560.205C570.032 288.863 577.999 296.83 577.999 306.656V333.346C577.999 343.173 570.032 351.139 560.205 351.139H533.516C523.689 351.139 515.723 343.173 515.723 333.346V306.656Z" fill="#5CAF7C"/>
<path d="M502.379 209.906C529.403 209.906 551.31 231.813 551.31 258.837V271.07H542.414V258.837C542.414 236.727 524.49 218.803 502.379 218.803H110.931C88.8206 218.803 70.8966 236.727 70.8966 258.837V381.165C70.8966 403.275 88.8206 421.199 110.931 421.199H502.379C524.49 421.199 542.414 403.275 542.414 381.165V368.932H551.31V381.165C551.31 408.189 529.403 430.096 502.379 430.096H110.931C83.9072 430.096 62 408.189 62 381.165V258.837C62 231.813 83.9072 209.906 110.931 209.906H502.379Z" fill="#151917"/>
</svg>
